<svg width="17" height="17" viewBox="0 0 17 17" fill="none" xmlns="http://www.w3.org/2000/svg">
<path d="M12.2496 1.93747C14.5127 3.22836 15.9995 5.70797 15.9995 8.49975C15.9995 9.98306 15.5596 11.4331 14.7356 12.6664C13.9115 13.8997 12.7402 14.861 11.3698 15.4286C9.99938 15.9962 8.49143 16.1448 7.03662 15.8554C5.58181 15.566 4.24549 14.8517 3.19663 13.8029C2.14777 12.754 1.43349 11.4177 1.14411 9.96287C0.85473 8.50807 1.00325 7.00012 1.57089 5.62972C2.13853 4.25932 3.09979 3.08802 4.33311 2.26394C5.56644 1.43985 7.01644 1 8.49975 1" stroke="black" stroke-width="2" stroke-linecap="round" stroke-linejoin="round"/>
<path d="M12.249 5.68737V1.9375H15.9989" stroke="black" stroke-width="2" stroke-linecap="round" stroke-linejoin="round"/>
</svg>
